<?xml version="1.0" encoding="UTF-8"?>
<svg id="PRINT_2" xmlns="http://www.w3.org/2000/svg" xmlns:xlink="http://www.w3.org/1999/xlink" viewBox="0 0 906.48 618.8">
  <defs>
    <style>
      .cls-1 {
        opacity: .47;
      }

      .cls-1, .cls-2 {
        fill: #fffefd;
      }

      .cls-3, .cls-4 {
        fill: none;
      }

      .cls-5 {
        fill: url(#_Безымянный_градиент_11);
      }

      .cls-6 {
        opacity: .2;
      }

      .cls-2 {
        opacity: .5;
      }

      .cls-4 {
        stroke: #0091ad;
        stroke-miterlimit: 10;
        stroke-width: .57px;
      }

      .cls-7 {
        clip-path: url(#clippath);
      }
    </style>
    <clipPath id="clippath">
      <rect class="cls-3" y="4.7" width="859.66" height="614.1"/>
    </clipPath>
    <linearGradient id="_Безымянный_градиент_11" data-name="Безымянный градиент 11" x1="428.23" y1="49.32" x2="431.79" y2="633.26" gradientUnits="userSpaceOnUse">
      <stop offset=".09" stop-color="#7eccdb"/>
      <stop offset="1" stop-color="#a6d3db"/>
    </linearGradient>
  </defs>
  <g class="cls-7">
    <rect class="cls-5" y="4.7" width="859.66" height="614.1"/>
    <g class="cls-6">
      <path class="cls-1" d="M741.71,83.49c.31,0,.62,0,.93-.02-.32-.06-.63-.04-.93.02Z"/>
      <path class="cls-1" d="M492.74,439.54c-2.17,1.06-4.11,2.54-5.91,4.11-3.6,3.16-6.66,6.82-10.2,9.72-3.49,2.93-7.56,5.09-11.83,6.67-4.29,1.58-8.79,2.61-13.36,3.41-2.29.4-4.6.74-6.92,1.06l-7,.95c-4.69.63-9.42,1.36-14.14,2.42-2.37.54-4.69,1.18-7.05,1.96-2.35.82-4.7,1.81-6.92,3.2-2.22,1.37-4.31,3.21-5.88,5.55l-.55.9c-.18.31-.33.63-.49.94-.32.63-.57,1.3-.78,1.94-.43,1.3-.69,2.57-.9,3.79-.21,1.21-.38,2.37-.59,3.44-.2,1.09-.47,2.05-.82,3.02-.71,1.93-1.78,3.74-3.1,5.35-2.64,3.24-6.4,5.58-10.42,6.51-1.99.45-4.18.49-6.54.5-2.35.01-4.9.02-7.52.61-2.63.63-5.16,1.84-7.17,3.54-2.04,1.69-3.71,3.7-5.03,5.86-1.33,2.15-2.36,4.44-3.18,6.77-.19.59-.39,1.17-.57,1.76-.17.59-.35,1.19-.49,1.77-.31,1.17-.56,2.35-.81,3.52-.49,2.34-.92,4.66-1.38,6.94-.46,2.29-.99,4.54-1.7,6.71-.7,2.17-1.55,4.32-2.73,6.22-1.18,1.92-2.71,3.64-4.45,5.1-.88.72-1.82,1.38-2.82,1.93-1,.55-2.07.99-3.17,1.31-1.1.32-2.25.49-3.42.49-1.16-.01-2.33-.19-3.45-.55,1.08.49,2.24.81,3.43.94,1.19.12,2.41.07,3.61-.14,2.39-.44,4.65-1.49,6.66-2.87,2.01-1.38,3.78-3.13,5.24-5.12,1.47-2.02,2.53-4.22,3.44-6.47,1.8-4.53,2.77-9.23,3.98-13.73.3-1.12.61-2.24.96-3.33.16-.56.35-1.08.53-1.62.19-.53.39-1.06.59-1.58.84-2.08,1.87-4.07,3.08-5.89,1.21-1.83,2.67-3.42,4.32-4.68,1.64-1.29,3.51-2.09,5.47-2.51,2-.39,4.21-.35,6.57-.32,2.35.03,4.91.08,7.55-.45,2.6-.53,5.07-1.54,7.32-2.91,2.24-1.37,4.27-3.08,5.96-5.1,1.69-2.01,3.05-4.32,3.99-6.82.13-.31.23-.63.32-.95l.29-.96c.18-.64.32-1.27.44-1.89.25-1.24.42-2.42.62-3.53.2-1.11.41-2.15.72-3.09.15-.47.32-.92.53-1.34.11-.21.2-.43.32-.63l.37-.61c1.06-1.59,2.56-2.97,4.34-4.08,1.76-1.14,3.78-2.03,5.86-2.79,2.11-.73,4.33-1.37,6.55-1.93,4.46-1.11,9.06-1.9,13.69-2.68,4.64-.76,9.33-1.51,14.02-2.52,2.34-.49,4.68-1.08,7-1.77,2.32-.69,4.61-1.49,6.85-2.46,2.23-.97,4.42-2.08,6.48-3.4,2.06-1.31,4.01-2.82,5.77-4.51,1.77-1.68,3.33-3.5,4.87-5.29,1.53-1.8,3.05-3.58,4.65-5.28,1.6-1.68,3.33-3.25,5.3-4.45.98-.61,2.03-1.11,3.14-1.48,1.1-.36,2.27-.58,3.45-.65-2.36-.18-4.78.4-6.95,1.45Z"/>
      <path class="cls-1" d="M251.89,439.78c2.63-2.24,4.76-5.05,6.44-8.08,1.69-3.03,2.88-6.35,3.74-9.67.45-1.66.81-3.33,1.13-5,.33-1.67.62-3.34.89-4.99.27-1.66.54-3.31.82-4.93.28-1.63.57-3.25.92-4.84.08-.4.17-.8.27-1.19.09-.39.18-.8.28-1.17.19-.74.42-1.47.67-2.17.51-1.4,1.18-2.7,2-3.68.4-.5.85-.88,1.3-1.17.46-.28.91-.49,1.42-.55.12-.04.25-.03.38-.04.13,0,.25-.03.39-.02.27.03.54.03.83.11.57.1,1.21.34,1.88.61.67.29,1.37.63,2.12,1.01l1.15.57c.41.19.8.39,1.25.57.84.38,1.82.71,2.86.95.55.09,1.08.2,1.67.2.29,0,.57.03.87,0,.29-.03.59-.06.88-.1.59-.08,1.15-.26,1.64-.42.49-.17.92-.36,1.31-.52.78-.33,1.39-.57,1.83-.65.45-.08.99-.07,1.63.04.64.11,1.37.31,2.17.54.81.22,1.7.48,2.71.64.5.08,1.04.14,1.6.15.27.02.57-.01.86-.02.29-.02.57-.07.86-.12,1.14-.2,2.27-.62,3.2-1.23.94-.6,1.77-1.33,2.42-2.12,1.33-1.57,2.22-3.29,2.9-5.01.34-.86.63-1.73.87-2.61l.17-.65.15-.61.3-1.21c.4-1.59.83-3.1,1.4-4.47.29-.68.61-1.32.97-1.9.37-.57.79-1.07,1.25-1.5.48-.41,1-.76,1.58-1.03.58-.26,1.19-.43,1.85-.51,1.32-.16,2.79.08,4.29.49,3.02.84,6.11,2.33,9.55,3.17,1.71.42,3.58.6,5.36.4,1.78-.2,3.52-.69,5.08-1.49,1.57-.79,2.99-1.82,4.19-3.06,1.18-1.25,2.16-2.68,2.78-4.24-.89,1.43-2.01,2.67-3.3,3.67-1.28,1.01-2.72,1.8-4.23,2.33-1.51.53-3.09.81-4.64.8-1.56,0-3.05-.28-4.55-.82-3.01-1.03-5.87-2.74-9.23-3.96-1.67-.6-3.54-1.08-5.58-.99-1.01.04-2.05.25-3.02.61-.97.36-1.89.9-2.71,1.54-.81.66-1.5,1.42-2.09,2.22-.58.81-1.05,1.65-1.46,2.49-.8,1.69-1.34,3.39-1.83,5.03l-.36,1.22-.17.6-.17.55c-.24.73-.49,1.45-.79,2.13-.58,1.37-1.33,2.64-2.19,3.59-.88.95-1.82,1.54-2.83,1.67-.5.1-1.02.06-1.67-.06-.64-.12-1.36-.32-2.16-.56-.8-.23-1.69-.5-2.7-.68-1-.18-2.17-.27-3.37-.05-1.2.22-2.15.64-2.91.95-.77.32-1.36.55-1.81.6-.12.01-.24.03-.36.05-.12.03-.26,0-.38,0-.25.02-.54-.06-.82-.09-.59-.14-1.21-.32-1.9-.63-1.35-.56-2.83-1.41-4.57-2.13-.89-.35-1.83-.69-2.91-.87-.52-.11-1.1-.14-1.66-.16-.28-.02-.58.03-.87.04-.29.03-.58.04-.86.11-1.15.2-2.26.69-3.2,1.32-.95.63-1.74,1.41-2.37,2.22-1.28,1.64-2.07,3.41-2.66,5.16-.29.88-.54,1.76-.72,2.65-.1.44-.17.85-.25,1.28-.09.42-.16.85-.23,1.27-.6,3.39-.94,6.76-1.3,10.08-.36,3.32-.73,6.6-1.32,9.81-.59,3.22-1.42,6.33-2.73,9.3-1.28,2.97-2.99,5.77-5.18,8.18-1.11,1.19-2.32,2.3-3.69,3.21-1.36.92-2.85,1.66-4.44,2.24,1.66-.29,3.27-.84,4.82-1.58,1.54-.76,2.95-1.76,4.28-2.86Z"/>
      <g>
        <path class="cls-2" d="M336.64,463.5c1.19,1.22,2.5,2.31,3.91,3.26,1.41.94,2.93,1.75,4.54,2.34,1.61.58,3.33.94,5.08.86,1.75-.07,3.51-.65,4.91-1.74,1.42-1.06,2.44-2.59,3.09-4.18.66-1.6,1.02-3.27,1.33-4.92.31-1.65.55-3.3.92-4.9.37-1.59.87-3.16,1.75-4.47.44-.65.97-1.23,1.58-1.71.62-.48,1.31-.85,2.05-1.1,1.48-.5,3.11-.48,4.7-.21,1.6.27,3.18.75,4.77,1.25,1.59.5,3.19,1.02,4.85,1.38,1.66.36,3.4.57,5.15.3.87-.14,1.72-.4,2.51-.79.79-.39,1.5-.89,2.18-1.39,1.35-1,2.62-2.04,4.13-2.48,1.51-.46,3.15-.46,4.8-.36,1.65.09,3.33.29,5.05.18.86-.06,1.73-.19,2.57-.48.84-.28,1.64-.71,2.33-1.26,1.4-1.11,2.33-2.67,2.94-4.27.61-1.61.95-3.28,1.2-4.95.13-.83.22-1.67.31-2.49.1-.82.21-1.65.34-2.46.51-3.27,1.24-6.52,2.36-9.62,1.13-3.09,2.65-6.08,4.9-8.45,1.12-1.18,2.43-2.17,3.88-2.89,1.45-.71,3.04-1.14,4.65-1.27,1.62-.13,3.26.01,4.9.25,1.64.23,3.28.55,4.95.78,1.67.23,3.37.36,5.08.2,1.7-.16,3.37-.6,4.95-1.26,3.15-1.33,5.86-3.52,8.04-6.1,1.09-1.29,2.05-2.69,2.88-4.16.83-1.48,1.5-3.03,2.08-4.61,1.13-3.17,1.83-6.48,2.29-9.79.35-2.53.57-5.07.76-7.61,1.03-1.41,1.94-2.9,2.72-4.46.96-1.91,1.7-3.93,2.24-6,.51-2.07.82-4.23.86-6.36.04-2.08-.05-4.07,0-5.98.05-1.9.22-3.73.8-5.26.29-.77.67-1.45,1.17-2.03.49-.58,1.12-1.09,1.79-1.45,1.34-.73,3.03-.9,4.82-.73,1.79.17,3.65.64,5.53,1.17,1.88.54,3.79,1.15,5.79,1.67,1.99.5,4.09.95,6.34.88,1.12-.03,2.29-.22,3.4-.64,1.11-.42,2.16-1.06,3.01-1.87.88-.81,1.54-1.76,2.07-2.69.54-.93.98-1.85,1.42-2.71.44-.86.89-1.67,1.41-2.35.14-.18.28-.34.42-.49.16.37.35.72.58,1.04.65.93,1.5,1.63,2.4,2.15,1.82,1.03,3.9,1.44,5.97,1.14,1.99-.32,3.77-1.12,5.39-2.03,1.62-.91,3.12-1.94,4.63-2.84,1.52-.89,3.09-1.71,4.7-2.42,1.61-.72,3.27-1.33,4.96-1.89,3.39-1.1,6.88-2.03,10.32-3.16,6.9-2.21,13.55-5.11,19.97-8.39,6.42-3.29,12.66-6.91,18.77-10.71-3.14,1.77-6.28,3.53-9.46,5.21-3.18,1.68-6.39,3.3-9.64,4.83-6.5,3.07-13.17,5.76-20.05,7.75-3.43,1.02-6.93,1.82-10.42,2.88-1.74.53-3.48,1.12-5.17,1.83-1.7.7-3.34,1.51-4.96,2.4-1.61.89-3.12,1.86-4.67,2.67-1.53.8-3.12,1.43-4.7,1.63-1.5.18-3.14-.2-4.42-.99-.64-.39-1.19-.9-1.55-1.46-.37-.57-.56-1.18-.54-1.83.02-.93-.93-1.58-1.79-1.21l-.04.02c-1.14.49-2.1,1.33-2.81,2.22-.72.89-1.25,1.83-1.74,2.73-.97,1.79-1.8,3.49-3.02,4.55-.61.55-1.31.95-2.07,1.22-.76.26-1.59.38-2.46.39-1.74.01-3.59-.4-5.44-.92-1.85-.53-3.73-1.18-5.66-1.78-1.94-.6-3.94-1.18-6.12-1.44-.02,0-.04,0-.06,0-.05-.79-.18-1.59-.39-2.37-.43-1.42-1.06-2.8-1.9-4.06-1.73-2.47-4.09-4.47-6.75-5.92-.65-.39-1.36-.68-2.05-1.01-.35-.14-.71-.28-1.07-.41-.36-.14-.72-.25-1.1-.35-.37-.1-.74-.22-1.12-.31l-1.14-.23c-.39-.09-.75-.12-1.13-.18-.38-.05-.75-.11-1.13-.14-1.51-.16-3.01-.18-4.51-.16-1.5.04-2.98.16-4.44.32-2.92.35-5.75.91-8.52,1.43-1.38.26-2.75.52-4.1.74-1.35.22-2.69.4-4.04.57-1.35.14-2.7.28-4.05.38-1.35.13-2.7.17-4.05.24-2.7.06-5.4.07-8.09-.12-.67-.03-1.34-.08-2.01-.15-.67-.06-1.34-.11-2.01-.19-1.34-.17-2.67-.31-4-.54-2.66-.39-5.29-.9-7.9-1.53-2.61-.61-5.17-1.4-7.7-2.25-1.24-.47-2.54-.9-3.72-1.4-1.19-.49-2.33-1.01-3.39-1.58-2.11-1.15-3.91-2.45-5.09-3.92-.59-.74-1.03-1.49-1.39-2.37-.34-.88-.59-1.89-.76-2.99-.33-2.23-.3-4.83-.3-7.71,0-2.87-.04-5.75-.14-8.62-.25-5.74-.7-11.47-1.34-17.18l-.25-2.15c-.09-.74-.19-1.5-.32-2.29-.26-1.58-.63-3.29-1.3-5.06-.67-1.76-1.71-3.62-3.14-5.14-1.4-1.53-3.08-2.7-4.78-3.52-3.42-1.64-6.86-2.17-10.15-2.26-3.24-.07-6.14.27-8.82.43-1.33.08-2.6.12-3.8.09-1.21-.03-2.31-.17-3.44-.39-1.13-.22-2.24-.54-3.33-.97-.57-.22-.96-.42-1.89-.81l-.6-.26-.62-.22c-.42-.14-.82-.3-1.25-.4-3.36-.97-6.94-1-10.29-.23-3.34.8-6.47,2.42-8.96,4.72l-1.52,1.38c-.49.45-.99.91-1.52,1.33l-1.55,1.29c-.53.42-1.07.81-1.61,1.22-1.06.84-2.21,1.55-3.32,2.33-.57.37-1.15.71-1.73,1.07-.57.36-1.16.71-1.75,1.04l-1.77,1.01-1.82.93c-1.2.65-2.47,1.16-3.71,1.74-2.53,1.04-5.1,2.01-7.75,2.78l-.99.3-1,.26-2.01.52-2.04.42-1.02.21-1.03.17-2.06.35-2.08.25-1.05.12-1.05.07-2.11.14-.02.56,2.12.04,1.06.02,1.06-.03,2.12-.07,2.12-.17,1.06-.09,1.05-.14,2.11-.28,2.09-.37,1.04-.19,1.04-.24,2.07-.48,2.05-.57,1.02-.29,1.01-.33,2.02-.67c1.32-.52,2.66-.97,3.95-1.56l1.95-.85,1.91-.94c.64-.3,1.26-.64,1.88-.98.62-.34,1.25-.68,1.86-1.03,1.2-.75,2.44-1.44,3.6-2.26,2.38-1.54,4.59-3.33,6.77-5.13,2.11-1.78,4.66-3.01,7.35-3.57,2.7-.53,5.53-.43,8.15.41.33.08.65.23.97.34l.48.18.47.22c.62.27,1.26.62,1.92.9,1.31.58,2.68,1.04,4.08,1.37,2.8.69,5.7.73,8.53.61,2.83-.11,5.64-.36,8.41-.24,2.76.12,5.53.65,7.97,1.88,1.22.61,2.31,1.43,3.22,2.42.91.98,1.58,2.18,2.06,3.44.95,2.56,1.17,5.37,1.48,8.17.57,5.6.96,11.21,1.17,16.83.12,2.81.18,5.62.2,8.44.02,2.81-.01,5.67.43,8.52.23,1.42.58,2.84,1.13,4.19.56,1.35,1.32,2.62,2.25,3.74,1.86,2.26,4.31,3.91,6.85,5.19,1.28.65,2.59,1.21,3.92,1.71,1.33.51,2.68.94,4.02,1.4,2.71.84,5.44,1.61,8.21,2.2,2.77.59,5.56,1.09,8.38,1.41,1.4.19,2.82.29,4.23.42.71.05,1.41.08,2.12.12.71.04,1.41.07,2.12.08,2.83.1,5.66-.01,8.49-.18,2.82-.21,5.64-.53,8.43-1,5.6-.9,11.01-2.59,16.54-3.54,2.76-.47,5.56-.76,8.34-.63,1.39.08,2.78.2,4.12.55.68.13,1.33.38,2,.57.64.26,1.31.47,1.92.79,2.52,1.16,4.81,2.85,6.55,5,.86,1.08,1.54,2.29,2.04,3.57.23.65.4,1.31.52,1.99-.84-.06-1.71-.05-2.59.05-1.16.14-2.35.47-3.45,1.03-1.1.56-2.06,1.32-2.88,2.24-.81.92-1.44,1.99-1.86,3.08-.86,2.2-1.06,4.4-1.16,6.48-.08,2.08-.03,4.08-.1,5.98-.06,1.86-.36,3.67-.84,5.46-.5,1.77-1.17,3.51-2.03,5.15-1.7,3.29-4.12,6.2-6.96,8.55-2.44,2.01-5.24,3.55-8.2,4.51,0,0-.01-.01-.02-.02-.41-.5-.88-.96-1.39-1.35-.51-.39-1.05-.71-1.61-.99-.56-.27-1.12-.47-1.69-.64-2.27-.64-4.47-.61-6.57-.37-1.05.13-2.07.32-3.08.58-1,.24-2.04.59-2.89.87-1.78.58-3.52,1.11-5.21,1.42-1.68.31-3.33.4-4.69.07-.68-.16-1.28-.43-1.82-.79-.26-.19-.52-.39-.75-.62-.24-.24-.48-.52-.73-.84-.5-.64-1-1.42-1.61-2.27-.62-.84-1.36-1.78-2.44-2.59-.53-.4-1.16-.76-1.81-1.01-.65-.25-1.33-.41-1.96-.49-1.28-.16-2.41-.06-3.41.04-1,.1-1.88.22-2.65.23-.38,0-.72,0-1.05-.06-.33-.04-.67-.12-1.03-.22-1.42-.41-2.96-1.3-4.74-2.23-.45-.23-.91-.46-1.41-.68l-.37-.16c-.14-.06-.27-.11-.41-.16-.28-.11-.55-.2-.83-.29-1.12-.34-2.29-.55-3.52-.56-1.23,0-2.55.18-3.87.8-.65.31-1.29.74-1.84,1.27-.55.53-1,1.17-1.33,1.83-.64,1.32-.8,2.49-.99,3.37-.09.45-.17.83-.27,1.14-.1.32-.22.64-.37.94-.6,1.22-1.64,2.3-2.93,3.12-1.29.82-2.81,1.39-4.36,1.64-.39.06-.77.11-1.17.13l-.61.03h-.62c-.83,0-1.67-.08-2.51-.2-1.7-.25-3.41-.68-5.15-1.23-.87-.27-1.74-.57-2.63-.88-.88-.3-1.77-.64-2.76-.95-.98-.31-2.04-.6-3.2-.77-1.15-.16-2.44-.18-3.73.1-1.31.28-2.51.88-3.48,1.56-.98.68-1.79,1.44-2.51,2.18-.72.74-1.35,1.43-2,2.12l-1.94,2.06c-1.3,1.36-2.6,2.7-3.93,3.98-2.66,2.56-5.45,4.91-8.48,6.75-1.51.92-3.08,1.71-4.7,2.32-.81.31-1.64.56-2.48.8-.85.22-1.72.42-2.61.59-3.56.7-7.46,1.01-11.45,2.18-1.99.57-3.98,1.44-5.78,2.52-1.8,1.09-3.45,2.39-4.93,3.81-2.96,2.86-5.3,6.16-7.31,9.53-1.01,1.69-1.94,3.41-2.82,5.13-.87,1.72-1.73,3.44-2.55,5.19-1.65,3.48-3.2,7.01-4.64,10.57-1.44,3.57-2.79,7.17-4.02,10.82-1.22,3.65-2.34,7.33-3.34,11.04-1.01,3.71-1.9,7.46-2.71,11.21-.79,3.72-1.53,7.35-3.04,10.53-.74,1.59-1.71,3.04-2.83,4.46-1.13,1.41-2.39,2.76-3.7,4.11-1.31,1.36-2.67,2.72-3.97,4.19-.65.73-1.3,1.48-1.92,2.29-.61.8-1.18,1.64-1.7,2.51-1.04,1.74-1.9,3.62-2.42,5.64-.52,2.01-.69,4.19-.26,6.32.11.53.25,1.06.44,1.57.18.51.41,1.02.63,1.46.45.88.83,1.63.92,2.23.09.58-.05,1.14-.45,1.75-.4.6-1.02,1.19-1.71,1.76-.35.29-.71.56-1.09.87-.39.32-.79.63-1.16.98-.76.67-1.45,1.42-2.1,2.21-1.28,1.59-2.29,3.43-2.9,5.38-.63,1.95-.86,3.97-.89,5.95,0,1.98.2,3.93.5,5.85.63,3.83,1.61,7.52,2.53,11.21.92,3.68,1.77,7.37,2.19,11.12.21,1.87.32,3.75.27,5.64-.04,1.88-.23,3.76-.61,5.61-.74,3.7-2.3,7.23-4.42,10.39,2.3-3.03,4.03-6.53,4.96-10.26.96-3.73,1.13-7.64.84-11.47-.28-3.84-1-7.62-1.77-11.36-.76-3.74-1.64-7.44-2.12-11.15-.23-1.85-.37-3.71-.3-5.53.08-1.82.36-3.61.96-5.28.58-1.67,1.49-3.2,2.63-4.53.58-.66,1.2-1.29,1.89-1.86.33-.3.7-.56,1.05-.84.37-.28.77-.57,1.17-.88.79-.62,1.6-1.32,2.29-2.28.34-.48.64-1.05.82-1.68.19-.63.23-1.32.15-1.96-.18-1.3-.73-2.26-1.1-3.08-.2-.41-.34-.77-.47-1.17-.13-.39-.22-.79-.3-1.19-.29-1.62-.13-3.32.34-4.98.47-1.66,1.25-3.26,2.2-4.76.48-.75,1-1.48,1.56-2.17.56-.69,1.17-1.37,1.8-2.04,1.26-1.35,2.62-2.65,3.99-4,1.36-1.35,2.73-2.76,4.01-4.3,1.26-1.55,2.45-3.25,3.36-5.11.91-1.84,1.58-3.75,2.12-5.65.55-1.9.97-3.79,1.4-5.64.85-3.68,1.79-7.32,2.85-10.94,2.11-7.23,4.62-14.34,7.52-21.29,1.45-3.47,3-6.9,4.65-10.29.82-1.69,1.68-3.37,2.54-5.04.26-.5.53-.99.79-1.48-.04.2-.09.4-.13.59,1.65-1.61,4.09-1.89,6.3-1.92,1.3-.01,2.59,0,3.89.06,1.98.08,3.88-.8,5.09-2.36,4.66-6.01,10.11-11.4,16.17-15.99.99-.27,1.98-.57,2.94-.93,1.94-.73,3.79-1.64,5.54-2.69,3.5-2.1,6.56-4.69,9.38-7.4,1.41-1.35,2.77-2.74,4.1-4.13l1.97-2.09c.65-.69,1.31-1.41,1.92-2.03.61-.62,1.21-1.16,1.79-1.56.59-.4,1.13-.65,1.69-.77,1.12-.26,2.63,0,4.29.55.82.26,1.72.6,2.63.91.91.32,1.84.63,2.79.93,1.89.59,3.87,1.1,5.95,1.4,1.04.14,2.1.23,3.17.25h.81c.27-.01.54-.03.81-.05.54-.03,1.11-.1,1.66-.19,2.2-.37,4.33-1.15,6.25-2.38,1.91-1.22,3.65-2.94,4.73-5.15.27-.55.5-1.12.67-1.71.18-.59.29-1.15.39-1.63.18-.97.34-1.71.55-2.11.2-.38.42-.61.83-.82.41-.2,1.01-.33,1.68-.32.67,0,1.4.12,2.1.33.17.05.35.11.52.17.09.03.17.07.25.1l.28.12c.38.16.77.36,1.17.56,1.61.8,3.37,1.88,5.62,2.54.57.16,1.15.29,1.77.37.61.09,1.23.1,1.8.09,1.14-.03,2.15-.18,3.04-.27.89-.1,1.68-.14,2.29-.07.62.08,1.02.24,1.48.57.45.33.94.87,1.45,1.56.51.69,1.05,1.5,1.73,2.36.34.43.72.87,1.16,1.3.44.43.94.82,1.46,1.17.53.34,1.08.64,1.66.88.57.23,1.16.42,1.75.56,1.18.26,2.34.33,3.45.29,1.11-.04,2.17-.19,3.2-.39,2.05-.4,3.95-1.02,5.79-1.63.95-.33,1.72-.59,2.57-.81.84-.22,1.68-.39,2.52-.5,1.67-.22,3.36-.21,4.77.17.35.1.68.22.98.36.3.14.58.31.83.49.25.19.46.4.66.63.19.23.36.49.51.77l.87,1.59,1.66-.43c4.2-1.1,8.1-3.18,11.37-5.93,1.57-1.32,3.01-2.79,4.29-4.39l-.21,1.39c-.26,1.64-.55,3.28-.89,4.9-.66,3.23-1.53,6.39-2.8,9.34l-.5,1.09c-.17.36-.36.71-.53,1.07-.35.71-.74,1.38-1.16,2.04-.84,1.31-1.79,2.55-2.85,3.67-1.06,1.12-2.21,2.12-3.45,2.97-1.24.85-2.55,1.52-3.9,2.03-1.35.5-2.74.79-4.12.86-1.37.07-2.82-.1-4.36-.37-1.54-.27-3.15-.65-4.9-.97-1.74-.31-3.64-.56-5.68-.46-2.05.12-4.1.61-6.01,1.5-1.91.88-3.62,2.14-5.04,3.57-1.43,1.43-2.59,3.03-3.57,4.66-.98,1.64-1.77,3.34-2.44,5.05-1.34,3.42-2.21,6.9-2.79,10.37-.15.87-.28,1.74-.4,2.61l-.17,1.23c-.05.39-.11.77-.17,1.14-.25,1.48-.58,2.86-1.03,3.97-.23.55-.48,1.03-.75,1.41-.27.38-.54.65-.81.85-.28.2-.57.35-.92.45-.35.11-.81.18-1.38.2-1.14.05-2.67-.13-4.47-.27-.91-.07-1.9-.11-2.99-.06-1.09.05-2.29.21-3.52.58-.61.18-1.24.44-1.82.71-.57.28-1.08.58-1.55.88-.91.59-1.64,1.16-2.24,1.6-.3.22-.58.41-.81.56-.24.16-.45.27-.63.35-.34.17-.7.27-1.12.33-.83.13-1.97.03-3.3-.27-1.33-.3-2.81-.79-4.42-1.3-1.62-.51-3.38-1.08-5.44-1.44-1.04-.17-2.15-.3-3.36-.27-1.21.03-2.51.21-3.79.64-.64.21-1.26.48-1.85.81-.59.32-1.15.68-1.68,1.1-1.06.83-1.98,1.85-2.68,2.91-.7,1.06-1.2,2.15-1.58,3.18-.38,1.03-.64,2.02-.86,2.96-.42,1.88-.66,3.58-.93,5.12-.27,1.53-.58,2.9-1.01,3.93-.21.52-.44.95-.69,1.3-.24.35-.51.62-.82.86-.59.46-1.23.7-2.15.76-.91.05-2.04-.13-3.21-.55-1.17-.4-2.38-1-3.53-1.73-1.15-.74-2.24-1.61-3.21-2.57l-.36-.36-.4-.42-.81-.88-1.66-1.84c-1.13-1.25-2.3-2.55-3.6-3.83-1.29-1.28-2.71-2.55-4.36-3.68-1.64-1.13-3.54-2.13-5.65-2.72-1.05-.29-2.14-.47-3.24-.54-1.12-.07-2.24-.02-3.34.16-2.2.35-4.23,1.18-6,2.28-1.77,1.1-3.3,2.47-4.59,3.97-1.29,1.51-2.37,3.17-3.21,4.94-.42.89-.78,1.8-1.09,2.74-.15.47-.29.95-.39,1.41-.11.46-.23.92-.31,1.39-.71,3.72-.6,7.4-.19,10.89.42,3.49,1.14,6.83,1.83,10.1.69,3.27,1.45,6.52,2.17,9.78.74,3.26,1.45,6.52,2.2,9.78l1.14,4.88.29,1.22.14.61.07.31c.02.08.03.16.05.25.11.71.13,1.5.09,2.28-.08,1.56-.38,3.12-1,4.51-.31.69-.71,1.33-1.22,1.84-.25.26-.53.5-.83.69-.15.11-.31.18-.47.27-.18.09-.37.17-.55.25-1.45.62-3.04.95-4.65,1.07-1.61.11-3.25,0-4.88-.22-3.25-.47-6.45-1.44-9.54-2.65l-.2.47c3.09,1.29,6.29,2.36,9.62,2.92,1.66.27,3.35.42,5.04.34,1.69-.08,3.38-.39,4.97-1.02.78-.29,1.6-.73,2.22-1.34.64-.6,1.14-1.32,1.52-2.09.77-1.54,1.15-3.23,1.29-4.92.07-.85.08-1.7-.01-2.56-.13-.86-.28-1.65-.42-2.48l-.84-4.93-3.38-19.73c-.57-3.29-1.14-6.57-1.41-9.87-.27-3.3-.22-6.63.49-9.84.66-3.21,2.18-6.22,4.36-8.65,1.09-1.21,2.35-2.27,3.74-3.1,1.39-.82,2.93-1.4,4.52-1.62,1.59-.23,3.22-.07,4.77.39,1.55.46,2.99,1.23,4.32,2.17,1.33.94,2.55,2.06,3.71,3.24,1.16,1.18,2.25,2.43,3.35,3.68,1.1,1.26,2.17,2.53,3.34,3.76Z"/>
        <path class="cls-2" d="M291.18,255.93c2.39-.44,4.65-1.49,6.66-2.87,2.01-1.38,3.78-3.13,5.24-5.12,1.47-2.02,2.53-4.22,3.44-6.47,1.8-4.53,2.77-9.23,3.98-13.73.3-1.12.61-2.24.95-3.33.16-.56.35-1.08.53-1.62.19-.53.39-1.06.59-1.58.84-2.08,1.87-4.07,3.08-5.89,1.21-1.82,2.67-3.42,4.32-4.68,1.64-1.29,3.51-2.09,5.47-2.51,2-.39,4.21-.35,6.57-.32,2.35.03,4.91.08,7.55-.45,2.6-.53,5.07-1.54,7.32-2.91,2.24-1.37,4.27-3.08,5.96-5.1,1.69-2.01,3.05-4.32,3.99-6.82.13-.31.23-.63.32-.95l.29-.96c.18-.64.32-1.27.44-1.89.25-1.24.42-2.42.62-3.53.2-1.11.41-2.15.72-3.09.15-.47.32-.92.53-1.34.11-.21.2-.43.32-.63l.37-.61c1.06-1.59,2.56-2.97,4.34-4.08,1.76-1.14,3.77-2.03,5.86-2.79,2.11-.73,4.33-1.37,6.55-1.93,4.46-1.11,9.06-1.9,13.69-2.68,4.64-.76,9.33-1.51,14.02-2.52,2.34-.49,4.68-1.08,7-1.77,2.32-.69,4.61-1.49,6.85-2.46,2.23-.97,4.42-2.08,6.48-3.4,2.06-1.31,4.01-2.82,5.77-4.51,1.77-1.68,3.33-3.5,4.87-5.29,1.53-1.8,3.05-3.58,4.65-5.28,1.6-1.68,3.33-3.25,5.3-4.45.98-.61,2.03-1.11,3.14-1.48,1.11-.36,2.27-.58,3.45-.65-2.36-.18-4.78.4-6.95,1.45-2.17,1.06-4.11,2.54-5.91,4.11-3.6,3.16-6.66,6.82-10.2,9.72-3.49,2.93-7.56,5.09-11.83,6.67-4.29,1.58-8.79,2.61-13.36,3.41-2.29.4-4.6.74-6.92,1.06l-7,.95c-4.69.63-9.42,1.36-14.14,2.42-2.37.54-4.69,1.18-7.05,1.96-2.35.82-4.7,1.81-6.92,3.2-2.22,1.37-4.31,3.21-5.88,5.55l-.55.9c-.18.31-.33.63-.49.94-.32.63-.57,1.3-.78,1.94-.43,1.3-.69,2.57-.9,3.79-.21,1.21-.38,2.37-.59,3.44-.2,1.09-.47,2.05-.82,3.02-.71,1.93-1.78,3.74-3.1,5.35-2.64,3.24-6.4,5.58-10.42,6.51-1.99.45-4.18.49-6.54.5-2.35.01-4.9.02-7.52.61-2.63.63-5.16,1.84-7.17,3.54-2.04,1.69-3.71,3.7-5.03,5.86-1.33,2.15-2.36,4.44-3.18,6.77-.19.59-.39,1.17-.57,1.76-.17.59-.35,1.18-.49,1.77-.31,1.17-.56,2.35-.81,3.52-.49,2.34-.92,4.66-1.38,6.94-.46,2.29-.99,4.54-1.7,6.71-.7,2.17-1.55,4.32-2.73,6.22-1.18,1.92-2.71,3.64-4.45,5.1-.88.72-1.82,1.38-2.82,1.93-1,.55-2.06.99-3.17,1.31-1.1.32-2.25.49-3.42.49-1.16-.01-2.33-.19-3.45-.55,1.08.49,2.24.81,3.43.94,1.19.12,2.41.07,3.61-.14Z"/>
        <path class="cls-2" d="M568.02,131.04c-1.04.5-2.14.75-3.27.96-1.16.17-2.54.23-4.06.57-.38.09-.77.2-1.16.34-.4.14-.76.32-1.13.5-.73.39-1.41.88-2.01,1.46-1.21,1.16-1.95,2.63-2.43,4.04-.47,1.42-.7,2.83-.84,4.2-.14,1.38-.2,2.72-.24,4.05-.03,1.33-.05,2.63-.11,3.92-.03.64-.07,1.28-.14,1.9-.02.32-.09.61-.13.92-.05.3-.08.61-.15.91-.52,2.41-1.57,4.73-3,6.8-1.46,2.06-3.32,3.86-5.46,5.28-1.97,1.28-4.19,2.22-6.54,2.71-5.34-.21-10.72,3.03-12.91,7.94-.96,2.14-1.34,4.51-2.42,6.59-3.34,6.44-12.21,8.43-15.58,14.86-1.06,2.02-1.47,4.3-2.03,6.51-4.16,16.46-16.68,29.28-25.26,43.93-1.31,2.23-2.54,4.53-4.21,6.51-5.58,6.61-13.75,7.92-22.29,9.33,10.52,2.94,21.58-3.44,28.75-11.67,7.17-8.24,11.88-18.37,18.95-26.69,10.09-11.88,25.42-20.99,28.23-36.32,1.08-5.87.6-13.03,5.47-16.48,8.54-6.04,20.59,7.48,29.99,2.88,2.84-1.39,4.79-4.25,7.7-5.46,6.4-2.66,14.68,3.49,20.24-.63,1.77-1.31,2.76-3.38,3.69-5.38,2.24-4.82,4.48-9.63,6.72-14.45,1.97-4.24,4.19-8.76,8.29-11.01,3.03-1.67,6.73-1.86,9.7-3.64,1.68-1,3.03-2.46,4.31-3.94,5.06-5.89,9.28-12.5,14.8-17.97,5.51-5.47,12.77-9.82,20.53-9.57,8.75.28,17.34,6.31,25.68,3.64,2.72-.87,5.14-2.63,7.96-3.09,8.18-1.33,15.66,8.55,23.51,5.91.07-9.87,6.46-19.4,15.56-23.21,1.94-.81,4.02-1.4,5.72-2.65,1.03-.75,2.06-1.78,3.24-2.03-3.18-.04-6.32-1.54-8.31-4.02-2.7,5.77-8.34,9.47-13.16,13.65-4.82,4.18-9.3,10.01-8.28,16.3-6.07-2.59-12.14-5.18-18.21-7.77-1.68-.72-3.43-1.45-5.26-1.39-2.61.08-4.87,1.73-7.26,2.78-10.53,4.63-23.06-2.41-34.11.78-10.12,2.93-15.82,13.26-23.22,20.75-10.14,10.26-25.4,17.04-29.25,30.95-1.33,4.81-1.99,11.15-6.8,12.48-4.97,1.37-11.33.08-16.37,1.18-4.66,1.02-8.04,5.4-12.7,6.41-6.95,1.5-13.13-4.87-20.17-5.87,1.99-.44,3.9-1.2,5.66-2.22,2.28-1.36,4.3-3.16,5.93-5.25,1.61-2.11,2.81-4.54,3.48-7.12.09-.32.13-.65.2-.98.06-.33.14-.65.18-.98.09-.66.16-1.31.21-1.97.11-1.32.17-2.63.25-3.95.08-1.31.17-2.62.34-3.92.17-1.3.42-2.58.86-3.8.44-1.21,1.08-2.37,2.03-3.23.93-.87,2.12-1.46,3.39-1.7,1.27-.26,2.58-.28,3.91-.44,1.32-.21,2.64-.49,3.86-1.03,1.23-.52,2.41-1.16,3.47-1.97,1.07-.79,2.07-1.68,2.96-2.67.47-.48.86-1.01,1.29-1.53.38-.54.79-1.07,1.14-1.64.73-1.11,1.34-2.3,1.88-3.51,1.08-2.44,1.75-5.02,2.22-7.62.92-5.23.93-10.53,1.17-15.78.23-5.25.71-10.5,1.78-15.64,1.07-5.13,2.74-10.16,5.29-14.73,2.54-4.56,5.99-8.64,10.21-11.73,2.11-1.54,4.4-2.83,6.84-3.75.62-.2,1.23-.43,1.85-.62.63-.16,1.26-.35,1.89-.48l.96-.18c.32-.06.64-.13.97-.15.65-.06,1.3-.14,1.95-.19,2.61-.15,5.23.09,7.81.53,2.58.44,5.13,1.09,7.66,1.8,5.06,1.43,10.09,3.09,15.32,3.93,2.61.42,5.28.58,7.92.4,2.65-.17,5.27-.64,7.81-1.37,5.09-1.46,9.87-3.96,14.04-7.21,4.17-3.25,7.75-7.27,10.42-11.84,2.68-4.56,4.43-9.69,4.91-14.96l-.3-.03c-.37,2.6-1.05,5.14-1.99,7.56-.93,2.43-2.11,4.74-3.51,6.91-2.79,4.33-6.38,8.11-10.52,11.1-8.2,6.03-18.64,8.96-28.41,7.08-2.47-.45-4.94-1.11-7.42-1.84l-7.55-2.29c-2.56-.75-5.19-1.46-7.92-1.96-2.72-.5-5.55-.8-8.44-.66-.72.04-1.44.12-2.16.19-.36.02-.72.09-1.08.15l-1.07.19c-.71.14-1.41.35-2.12.52-.7.2-1.38.45-2.07.68-2.71,1.01-5.25,2.42-7.56,4.09-4.62,3.36-8.36,7.74-11.12,12.65-2.72,4.92-4.44,10.25-5.54,15.61-1.08,5.37-1.57,10.77-1.74,16.12-.16,5.33-.12,10.51-.93,15.44-.41,2.45-1.02,4.86-1.94,7.05-.47,1.1-.99,2.19-1.63,3.2-.3.52-.66,1-.99,1.5-.37.46-.71.96-1.12,1.39-.77.91-1.64,1.71-2.56,2.42-.91.73-1.92,1.3-2.96,1.77Z"/>
        <path class="cls-2" d="M898.16,253.27c-2.7,5.77-8.34,9.47-13.16,13.65-4.82,4.18-9.3,10.01-8.28,16.3-6.07-2.59-12.14-5.18-18.21-7.77-1.68-.72-3.43-1.45-5.26-1.39-2.61.08-4.87,1.73-7.26,2.78-10.53,4.63-23.06-2.41-34.11.78-10.12,2.92-15.82,13.26-23.22,20.75-10.14,10.26-25.4,17.04-29.25,30.95-1.33,4.81-1.99,11.15-6.8,12.48-4.97,1.37-11.33.08-16.37,1.18-4.66,1.02-8.04,5.4-12.7,6.41-6.95,1.5-13.13-4.87-20.17-5.87,1.99-.44,3.9-1.2,5.66-2.22,2.28-1.36,4.3-3.16,5.93-5.25,1.61-2.11,2.81-4.54,3.48-7.12.09-.32.13-.65.2-.98.06-.33.14-.65.18-.98.09-.66.16-1.32.21-1.97.11-1.32.17-2.63.25-3.95.08-1.31.17-2.62.34-3.92.17-1.3.42-2.58.86-3.81.44-1.21,1.08-2.37,2.03-3.23.93-.87,2.12-1.46,3.39-1.7,1.27-.26,2.58-.28,3.91-.44,1.32-.21,2.64-.49,3.86-1.03,1.23-.52,2.41-1.16,3.47-1.97,1.07-.79,2.07-1.68,2.96-2.67.47-.48.86-1.01,1.29-1.53.38-.54.79-1.07,1.14-1.64.73-1.11,1.34-2.3,1.88-3.51,1.08-2.44,1.75-5.02,2.22-7.62.92-5.23.93-10.53,1.17-15.78.2-4.65.61-9.29,1.44-13.86.25-.17.5-.34.75-.5,1.75-1.13,3.59-2.13,5.55-2.81l-.16-.48c-1.05.23-2.08.56-3.08.95-.94.37-1.85.79-2.75,1.24.01-.06.02-.12.04-.18,1.07-5.13,2.74-10.16,5.29-14.73,2.54-4.56,5.99-8.64,10.21-11.73,2.11-1.54,4.4-2.83,6.84-3.75.62-.2,1.23-.43,1.85-.62.63-.16,1.26-.35,1.89-.48l.96-.18c.32-.06.64-.13.97-.15.65-.06,1.3-.14,1.95-.19,2.61-.15,5.23.09,7.81.53,2.58.44,5.13,1.09,7.66,1.8,5.06,1.43,10.09,3.09,15.32,3.93,2.61.42,5.28.58,7.92.4,2.65-.17,5.27-.64,7.81-1.37,5.09-1.46,9.87-3.96,14.04-7.21,4.17-3.25,7.75-7.27,10.42-11.84,2.68-4.56,4.43-9.69,4.91-14.96l-.3-.03c-.37,2.6-1.05,5.14-1.99,7.56-.93,2.43-2.11,4.74-3.51,6.91-2.79,4.33-6.38,8.11-10.52,11.1-8.2,6.03-18.64,8.96-28.41,7.08-2.47-.45-4.94-1.11-7.42-1.84l-7.55-2.29c-2.56-.75-5.19-1.46-7.92-1.96-2.72-.5-5.55-.8-8.44-.66-.72.04-1.44.12-2.16.19-.36.02-.72.09-1.08.15l-1.07.19c-.71.14-1.41.35-2.12.52-.7.2-1.38.45-2.07.68-2.71,1.01-5.25,2.42-7.56,4.09-4.62,3.36-8.36,7.74-11.12,12.65-2.72,4.92-4.44,10.25-5.54,15.61-.18.88-.33,1.77-.48,2.65-.8.47-1.58.95-2.37,1.42-1.81,1.06-3.56,2.15-5.35,2.99-1.78.84-3.58,1.44-5.26,1.52-1.68.1-3.23-.23-4.72-1.03-.77-.4-1.59-.92-2.49-1.49-.91-.57-1.91-1.18-3.08-1.72-.59-.28-1.22-.47-1.84-.69-.62-.22-1.28-.32-1.92-.47-.33-.04-.65-.08-.98-.12-.33-.03-.66-.08-.98-.08-.65,0-1.32-.03-1.95.04-2.58.19-4.98.89-7.15,1.78-4.34,1.77-8.02,4.12-11.56,6.17-1.77,1.02-3.51,1.97-5.19,2.73-1.69.76-3.34,1.31-4.86,1.54-.19.05-.37.04-.56.06-.18.01-.37.04-.55.05h-.53s-.27,0-.27,0c-.09,0-.17-.02-.26-.03l-.51-.05c-.17,0-.33-.07-.5-.09-.17-.04-.33-.05-.5-.1l-.49-.16c-.65-.2-1.25-.5-1.88-.88-.62-.4-1.25-.88-1.88-1.44-1.26-1.12-2.53-2.54-3.83-4.1-1.32-1.56-2.67-3.26-4.31-4.98-.82-.86-1.73-1.71-2.75-2.53-1.02-.82-2.17-1.6-3.48-2.24-1.31-.64-2.78-1.12-4.28-1.36-.38-.07-.75-.1-1.13-.13l-.57-.04c-.19,0-.38,0-.57,0-.38,0-.77,0-1.15.04-.38.04-.76.09-1.14.14-1.5.26-2.91.73-4.2,1.34-1.27.62-2.41,1.36-3.46,2.15-1.03.8-1.96,1.66-2.82,2.54-.85.89-1.63,1.8-2.35,2.73-.71.93-1.4,1.9-1.99,2.81-.3.46-.62.92-.91,1.38l-.87,1.39c-1.15,1.86-2.23,3.75-3.24,5.64-1.03,1.89-2.01,3.78-2.96,5.66l-2.81,5.62c-.94,1.85-1.89,3.68-2.88,5.47-.99,1.79-2.02,3.55-3.07,5.28-2.08,3.45-4.52,6.64-7.27,9.56-.34.37-.7.72-1.05,1.08-.35.36-.7.72-1.08,1.05l-1.11,1.02c-.38.33-.77.64-1.16.96l-.58.48-.6.45-1.22.89c-.42.27-.85.54-1.26.82-.21.14-.42.29-.63.41l-.65.38c-1.73,1.05-3.59,1.86-5.52,2.53-1.56.58-3.18.92-4.84,1.19.19-.94.36-1.88.48-2.83.07-.61.14-1.23.19-1.84.04-.61.09-1.23.11-1.83.06-1.21.06-2.41.06-3.61,0-2.39-.08-4.75-.1-7.08-.03-2.33.02-4.64.25-6.92.23-2.27.61-4.55,1.37-6.65.76-2.12,1.89-4.12,3.29-5.92.71-.89,1.49-1.73,2.36-2.48.87-.75,1.81-1.4,2.82-1.94,1.01-.54,2.1-.95,3.24-1.19,1.14-.23,2.32-.3,3.49-.18-1.15-.25-2.36-.32-3.55-.21-1.19.13-2.38.44-3.5.89-2.25.93-4.24,2.43-5.92,4.2-1.68,1.77-3.04,3.85-4.05,6.1-1.01,2.28-1.59,4.66-2.01,7.05-.82,4.8-.78,9.61-1.02,14.26-.06,1.16-.13,2.32-.24,3.46-.04.58-.12,1.13-.18,1.69-.07.56-.16,1.12-.25,1.67-.39,2.21-.98,4.37-1.78,6.41-.8,2.04-1.9,3.9-3.24,5.48-1.33,1.6-2.99,2.78-4.83,3.6-1.87.8-4.04,1.23-6.36,1.68-2.31.46-4.82.95-7.29,2.02-2.43,1.06-4.64,2.57-6.55,4.37-1.91,1.81-3.54,3.9-4.76,6.23-1.23,2.32-2.08,4.86-2.47,7.5-.06.33-.09.66-.12.99l-.08,1c-.04.66-.04,1.31-.03,1.94.02,1.26.1,2.45.13,3.58.04,1.13.05,2.19-.06,3.18-.05.49-.12.97-.24,1.42-.06.23-.11.46-.18.68l-.23.67c-.7,1.77-1.88,3.44-3.39,4.9-1.49,1.48-3.27,2.78-5.15,3.95-1.91,1.16-3.95,2.24-6,3.25-4.13,2.02-8.46,3.75-12.83,5.48-4.38,1.72-8.81,3.43-13.18,5.39-2.19.97-4.35,2.04-6.47,3.2-2.12,1.16-4.2,2.42-6.18,3.84-1.98,1.41-3.88,2.96-5.62,4.68-1.74,1.72-3.33,3.6-4.7,5.62-1.38,2.01-2.52,4.12-3.65,6.19-1.12,2.08-2.23,4.14-3.44,6.13-1.22,1.98-2.57,3.88-4.25,5.46-.83.8-1.75,1.51-2.76,2.1-1.01.58-2.09,1.04-3.23,1.35,2.35-.32,4.59-1.39,6.49-2.87,1.9-1.49,3.49-3.34,4.92-5.26,2.86-3.84,5.09-8.07,7.94-11.64,2.8-3.6,6.32-6.56,10.18-9,3.86-2.44,8.05-4.39,12.36-6.13,2.15-.87,4.34-1.68,6.55-2.48l6.65-2.39c4.45-1.6,8.93-3.3,13.32-5.32,2.2-1.02,4.34-2.14,6.49-3.39,2.13-1.29,4.22-2.75,6.1-4.58,1.88-1.8,3.54-4.04,4.59-6.65l.35-1c.11-.34.19-.68.28-1.02.18-.69.28-1.39.36-2.06.15-1.36.14-2.66.09-3.89-.05-1.23-.13-2.39-.15-3.49-.04-1.11.03-2.1.17-3.12.29-2.03.95-4.03,1.91-5.88,1.9-3.72,5.09-6.79,8.83-8.54,1.85-.86,3.98-1.35,6.29-1.85,2.29-.5,4.78-1.04,7.23-2.17,2.44-1.16,4.66-2.87,6.27-4.97,1.64-2.08,2.85-4.39,3.69-6.78.45-1.25.8-2.52,1.08-3.8l.53-.02c.26-.01.53-.01.79-.04l.79-.1c.53-.07,1.06-.11,1.58-.21l1.56-.32c2.06-.5,4.09-1.17,6-2.09l.72-.33c.24-.11.47-.25.7-.37l1.4-.75,1.35-.84.67-.42.65-.46c.43-.31.87-.61,1.3-.92l1.25-.98c.42-.32.82-.67,1.22-1.02.4-.35.8-.69,1.19-1.05,3.1-2.89,5.87-6.11,8.26-9.59,2.43-3.46,4.55-7.1,6.62-10.77,2.06-3.67,4.04-7.38,6.14-11,1.05-1.82,2.14-3.6,3.27-5.36l.86-1.31c.29-.43.59-.86.89-1.29.59-.87,1.21-1.7,1.85-2.51.65-.81,1.34-1.58,2.06-2.32.73-.73,1.5-1.41,2.31-2.04.82-.61,1.69-1.15,2.6-1.59.92-.42,1.88-.72,2.87-.89,1.98-.29,4.03.03,5.83.94,1.81.9,3.37,2.28,4.8,3.76,2.88,2.98,5.28,6.5,8.52,9.33.81.7,1.67,1.35,2.6,1.92.93.55,1.93,1.02,2.97,1.33,2.08.64,4.32.77,6.45.37,2.13-.38,4.15-1.15,6.07-2.07,1.92-.92,3.74-2.01,5.53-3.11,3.58-2.21,7.05-4.6,10.83-6.31,1.89-.86,3.87-1.49,5.9-1.71.51-.08,1.02-.07,1.53-.08.26-.02.51.02.76.03l.76.06.75.14c.25.05.5.08.74.17.49.15.98.27,1.45.47,1.9.76,3.64,1.97,5.61,2.84,1.97.89,4.22,1.22,6.37.89,2.15-.32,4.15-1.21,5.98-2.27,1.85-1.06,3.56-2.3,5.26-3.53.34-.25.68-.49,1.02-.74-.53,3.79-.82,7.59-.94,11.36-.16,5.33-.12,10.51-.93,15.44-.41,2.45-1.02,4.86-1.94,7.05-.47,1.1-.99,2.19-1.63,3.2-.3.52-.66,1-.99,1.5-.37.46-.71.96-1.12,1.39-.77.9-1.64,1.71-2.56,2.42-.91.73-1.92,1.3-2.96,1.77-1.04.5-2.14.75-3.27.96-1.16.17-2.54.23-4.06.57-.38.09-.77.2-1.16.34-.4.14-.76.32-1.13.5-.73.39-1.41.88-2.01,1.46-1.21,1.16-1.95,2.63-2.43,4.04-.47,1.42-.7,2.83-.84,4.21-.14,1.38-.2,2.72-.24,4.05-.03,1.33-.05,2.63-.11,3.92-.03.64-.07,1.28-.14,1.9-.02.32-.09.61-.13.92-.05.3-.08.61-.15.91-.52,2.41-1.57,4.73-3,6.8-1.46,2.06-3.32,3.86-5.46,5.28-1.97,1.28-4.19,2.22-6.54,2.71-5.34-.21-10.72,3.03-12.91,7.94-.96,2.14-1.34,4.51-2.42,6.59-3.34,6.44-12.21,8.43-15.58,14.86-1.06,2.02-1.47,4.3-2.03,6.51-4.16,16.46-16.68,29.28-25.26,43.93-1.31,2.23-2.54,4.53-4.21,6.51-5.58,6.61-13.75,7.92-22.29,9.33,10.52,2.94,21.58-3.44,28.75-11.67,1.44-1.65,2.77-3.38,4.05-5.15h.46s2.12-.08,2.12-.08l2.12-.17,1.06-.09,1.05-.14,2.11-.28,2.09-.37,1.04-.19,1.04-.24,2.07-.48,2.05-.57,1.02-.29,1.01-.33,2.02-.67c1.32-.52,2.66-.97,3.95-1.56l1.95-.85,1.91-.94c.64-.3,1.26-.64,1.88-.98.62-.34,1.25-.68,1.86-1.03,1.2-.75,2.44-1.44,3.6-2.26,2.38-1.54,4.59-3.33,6.77-5.13,2.11-1.78,4.66-3.01,7.35-3.57,2.7-.53,5.53-.43,8.15.41.33.08.65.23.97.34l.48.18.47.22c.62.27,1.26.62,1.92.9,1.31.58,2.68,1.04,4.08,1.37,2.8.69,5.7.73,8.53.61,2.83-.11,5.64-.36,8.41-.25,2.76.12,5.53.65,7.97,1.88,1.22.61,2.31,1.43,3.22,2.42.91.99,1.58,2.18,2.06,3.45.95,2.56,1.17,5.37,1.48,8.17.57,5.6.96,11.21,1.17,16.83.12,2.81.18,5.62.2,8.44.02,2.81-.01,5.67.43,8.52.23,1.42.58,2.84,1.13,4.19.55,1.35,1.32,2.62,2.25,3.74,1.86,2.26,4.31,3.91,6.85,5.19,1.28.65,2.59,1.21,3.92,1.71,1.33.51,2.68.94,4.02,1.4,2.71.84,5.44,1.61,8.21,2.2,2.77.59,5.56,1.09,8.38,1.41,1.4.19,2.82.29,4.23.42.71.05,1.41.08,2.12.12.71.04,1.41.07,2.12.08,2.83.1,5.66-.01,8.49-.18,2.82-.21,5.64-.53,8.43-1,5.6-.9,11.01-2.59,16.54-3.54,2.76-.47,5.56-.76,8.34-.63,1.39.08,2.78.2,4.12.55.68.13,1.33.38,2,.57.64.26,1.31.47,1.92.79,2.52,1.16,4.81,2.85,6.55,5,.86,1.08,1.54,2.29,2.04,3.57.47,1.3.68,2.67.69,4.04h.56c.11-1.43,0-2.92-.39-4.36-.43-1.42-1.06-2.8-1.9-4.06-1.73-2.47-4.09-4.47-6.75-5.92-.65-.39-1.36-.68-2.05-1.01-.35-.14-.71-.28-1.07-.41-.36-.14-.72-.25-1.1-.35-.37-.1-.74-.22-1.12-.31l-1.14-.24c-.39-.09-.75-.12-1.13-.18-.38-.05-.75-.11-1.13-.14-1.51-.16-3.01-.18-4.51-.16-1.5.04-2.98.16-4.44.32-2.92.35-5.75.91-8.52,1.43-1.38.26-2.75.52-4.1.74-1.35.22-2.69.4-4.04.57-1.35.14-2.7.28-4.05.38-1.35.13-2.7.17-4.05.24-2.7.06-5.4.07-8.09-.12-.67-.03-1.34-.08-2.01-.15-.67-.06-1.34-.11-2.01-.19-1.34-.17-2.67-.31-4-.54-2.66-.39-5.29-.9-7.9-1.53-2.61-.61-5.17-1.4-7.7-2.25-1.24-.47-2.54-.9-3.72-1.4-1.19-.49-2.33-1.01-3.39-1.58-2.11-1.15-3.91-2.45-5.09-3.92-.59-.74-1.03-1.49-1.39-2.37-.34-.88-.59-1.89-.76-2.99-.33-2.23-.3-4.83-.3-7.71,0-2.87-.04-5.75-.14-8.62-.25-5.74-.7-11.47-1.34-17.18l-.25-2.15c-.09-.74-.19-1.5-.32-2.29-.26-1.58-.63-3.29-1.3-5.06-.67-1.76-1.71-3.62-3.14-5.14-1.4-1.53-3.08-2.7-4.78-3.52-3.42-1.64-6.86-2.17-10.15-2.26-3.24-.07-6.14.27-8.82.43-1.33.08-2.6.12-3.8.09-1.21-.03-2.31-.17-3.44-.39-1.13-.22-2.24-.54-3.33-.97-.57-.22-.96-.42-1.89-.81l-.6-.26-.62-.22c-.42-.14-.82-.3-1.25-.4-3.36-.97-6.94-1-10.29-.23-3.34.8-6.47,2.42-8.96,4.72l-1.52,1.38c-.49.45-.99.91-1.52,1.33l-1.55,1.29c-.53.42-1.07.81-1.61,1.22-1.06.84-2.21,1.55-3.32,2.33-.57.37-1.15.71-1.73,1.07-.57.36-1.16.71-1.75,1.04l-1.77,1.01-1.82.93c-1.2.65-2.47,1.16-3.71,1.74-2.53,1.04-5.1,2.01-7.75,2.78l-.99.31-1,.26-2.01.52-2.04.42-1.02.21-1.03.17-2.06.35-1.83.22c4.79-6.81,8.81-14.22,14.21-20.57,10.09-11.88,25.42-20.99,28.23-36.32,1.08-5.87.6-13.03,5.47-16.48,8.54-6.04,20.59,7.48,29.99,2.88,2.84-1.39,4.79-4.25,7.7-5.46,6.4-2.66,14.68,3.49,20.24-.63,1.77-1.31,2.76-3.38,3.69-5.38,2.24-4.82,4.48-9.63,6.72-14.45,1.97-4.24,4.19-8.76,8.29-11.01,3.03-1.67,6.73-1.86,9.7-3.64,1.68-1,3.03-2.46,4.31-3.94,5.06-5.89,9.28-12.5,14.8-17.97,5.51-5.47,12.77-9.82,20.53-9.57,8.75.28,17.34,6.31,25.68,3.64,2.72-.87,5.14-2.63,7.96-3.09,8.18-1.33,15.66,8.55,23.51,5.91.07-9.87,6.46-19.4,15.56-23.21,1.94-.81,4.02-1.4,5.72-2.65,1.03-.75,2.06-1.78,3.24-2.03-3.18-.04-6.32-1.54-8.31-4.02Z"/>
        <path class="cls-2" d="M487.49,315.47l-.33.67c-.11.23-.25.43-.38.64-.13.21-.25.44-.4.64l-.45.6-.23.31-.26.28-.52.57c-.35.37-.75.7-1.13,1.06l.28.42c1.79-1.17,3.31-2.75,4.44-4.58,1.14-1.82,1.84-3.87,2.33-5.93.96-4.15,1.09-8.4,1.29-12.59.19-4.19.39-8.4,1.36-12.44.49-2.01,1.19-3.98,2.19-5.78.26-.44.53-.88.8-1.31.29-.42.59-.83.92-1.22.66-.77,1.42-1.45,2.29-1.92.87-.49,1.83-.79,2.82-.91.99-.12,2.01-.04,3.01.14,2.01.37,3.96,1.13,5.92,1.89,1.96.76,3.93,1.55,6.03,2.04,1.05.24,2.12.41,3.22.43,1.09.02,2.2-.12,3.25-.43,1.05-.31,2.07-.77,2.98-1.38.91-.61,1.74-1.33,2.47-2.12,1.48-1.59,2.6-3.45,3.52-5.37.92-1.93,1.65-3.94,2.25-5.97.3-1.01.56-2.05.82-3.06.26-1.01.54-2.02.83-3.02.59-2,1.27-3.97,2.14-5.85.88-1.87,1.96-3.64,3.35-5.12,1.4-1.47,3.14-2.6,5.09-3.13,1.94-.55,4.03-.52,6.1-.37,2.08.14,4.2.39,6.36.24,2.16-.14,4.25-.75,6.24-1.52,1.99-.77,3.88-1.7,5.78-2.59,1.9-.89,3.81-1.79,5.7-2.72,3.78-1.85,7.52-3.83,11.09-6.08,3.58-2.25,6.99-4.79,10.04-7.73,3.04-2.95,5.7-6.3,7.8-9.99,2.07-3.7,3.51-7.77,4.03-11.99l-.5-.06c-.51,2.04-1.18,4-2.05,5.86-.85,1.87-1.85,3.65-3,5.32-2.32,3.33-5.06,6.33-8.17,8.88-3.07,2.58-6.43,4.82-9.99,6.76-1.78.96-3.58,1.91-5.42,2.81-1.83.9-3.71,1.75-5.6,2.59-1.89.83-3.81,1.64-5.74,2.45-.97.4-1.94.83-2.87,1.22-.93.39-1.84.75-2.72,1.06-1.76.62-3.41,1-4.94,1.05-1.57.07-3.48-.17-5.7-.37-1.11-.1-2.32-.19-3.62-.15-1.3.04-2.71.19-4.14.58-1.41.37-2.79.97-4.04,1.73-1.25.76-2.37,1.68-3.34,2.67-1.93,2-3.26,4.24-4.3,6.43-1.04,2.2-1.8,4.4-2.45,6.55-.32,1.08-.6,2.15-.87,3.2l-.38,1.51c-.12.47-.25.93-.38,1.39-.53,1.84-1.17,3.61-1.92,5.23-.75,1.62-1.63,3.09-2.62,4.2-.5.56-1.01,1.02-1.54,1.39-.53.37-1.07.63-1.64.82-.28.1-.58.16-.89.22-.15.03-.31.04-.46.06l-.49.03c-.67.01-1.42-.07-2.23-.24-1.63-.34-3.46-.98-5.45-1.69-1-.35-2.04-.73-3.16-1.07-1.12-.34-2.31-.67-3.63-.86-1.31-.19-2.75-.27-4.26-.05-1.5.21-3.03.75-4.32,1.53-1.35.8-2.43,1.85-3.28,2.91-.43.53-.8,1.07-1.14,1.61-.32.54-.63,1.08-.92,1.63-1.12,2.21-1.85,4.52-2.27,6.8-.43,2.28-.62,4.51-.7,6.7-.08,2.19-.07,4.33-.03,6.45.13,4.22.27,8.34-.26,12.31-.28,1.98-.75,3.93-1.63,5.71Z"/>
        <path class="cls-2" d="M407.96,241.57c.02-.52.05-1.04.08-1.56.04-1.05.13-2.08.25-3.11.13-1.03.3-2.05.52-3.06.24-1,.53-1.99.89-2.95.38-.95.83-1.86,1.37-2.72.56-.84,1.22-1.61,1.97-2.27,1.53-1.29,3.45-2.1,5.45-2.28,2.01-.19,4.06.16,6.06.67,4.02,1.02,7.92,2.74,12.16,3.44,1.06.17,2.14.27,3.22.26,1.08-.02,2.18-.15,3.23-.44,2.11-.55,4.08-1.63,5.68-3.08,1.61-1.45,2.92-3.16,4.07-4.95,1.14-1.79,2.12-3.68,3.06-5.56,1.88-3.77,3.57-7.62,5.88-11.07,1.15-1.72,2.51-3.3,4.11-4.56.39-.33.83-.59,1.25-.87.21-.15.44-.25.66-.37l.68-.35.71-.28c.24-.09.47-.2.72-.25.49-.13.98-.29,1.48-.37,2.01-.36,4.13-.24,6.26-.54,2.14-.28,4.23-1.19,5.88-2.6,1.66-1.41,2.89-3.22,3.89-5.08,1.01-1.87,1.81-3.83,2.61-5.77.79-1.95,1.56-3.9,2.46-5.78.89-1.89,1.93-3.7,3.24-5.31l-.39-.32c-.77.75-1.47,1.57-2.12,2.43-.65.86-1.24,1.77-1.8,2.69-1.1,1.85-2.05,3.76-3.02,5.63-.98,1.86-1.89,3.71-2.97,5.36-1.07,1.65-2.28,3.11-3.67,4.07-1.38.97-2.87,1.51-4.55,1.61-.87.06-1.84.05-2.9.04-1.07,0-2.24,0-3.52.16-.65.08-1.28.24-1.92.38-.64.14-1.26.4-1.88.62-.3.13-.6.28-.9.42-.3.15-.6.28-.88.45-.56.34-1.14.67-1.64,1.06-2.09,1.52-3.76,3.39-5.14,5.28-2.76,3.8-4.64,7.73-6.57,11.33-.96,1.8-1.94,3.52-2.97,5.06-1.03,1.54-2.14,2.88-3.32,3.87-.14.14-.3.23-.44.35-.15.11-.29.23-.44.33l-.46.27-.22.14c-.08.04-.16.08-.23.11l-.46.23c-.15.08-.32.12-.48.18-.16.05-.31.13-.48.17l-.5.12c-.66.17-1.33.24-2.07.24-.74,0-1.53-.09-2.36-.24-1.66-.29-3.49-.83-5.42-1.46-1.94-.63-3.99-1.36-6.29-1.96-1.15-.29-2.37-.54-3.67-.7-1.3-.15-2.69-.22-4.14-.07-1.45.15-2.95.51-4.35,1.1-.36.14-.69.31-1.03.48l-.5.26c-.16.1-.33.2-.49.3-.32.21-.65.4-.96.64-.3.23-.6.47-.89.72-1.14,1.01-2.09,2.16-2.87,3.35-.75,1.2-1.33,2.43-1.8,3.65-.45,1.22-.79,2.44-1.06,3.64-.25,1.2-.43,2.39-.55,3.56-.11,1.16-.19,2.35-.21,3.43-.01.55-.04,1.11-.05,1.65v1.65c0,2.19.08,4.36.21,6.5.13,2.15.28,4.27.46,6.37l.57,6.26c.17,2.07.34,4.13.44,6.17.1,2.04.16,4.08.17,6.1.05,4.03-.34,8.02-1.14,11.96-.1.49-.22.98-.32,1.47-.11.49-.22.98-.36,1.46l-.4,1.45c-.15.48-.32.95-.48,1.43l-.24.72-.28.7-.56,1.4c-.21.45-.43.9-.64,1.36-.11.23-.2.46-.32.69l-.36.66c-.91,1.81-2.07,3.47-3.36,5.06-1.26,1.62-2.79,3-4.4,4.35l.27.43,1.32-.89c.22-.15.44-.29.66-.45l.62-.5c.41-.34.84-.65,1.23-1.01l1.15-1.1c1.48-1.51,2.86-3.15,3.99-4.94l.44-.66c.15-.22.27-.46.4-.68l.79-1.38.71-1.42.35-.71.31-.73c.21-.49.42-.97.62-1.46l.55-1.49c.19-.49.35-1,.5-1.51.15-.51.32-1.01.46-1.52,1.11-4.08,1.76-8.29,1.97-12.51.24-4.22.13-8.44-.05-12.64-.19-4.2-.46-8.4-.58-12.58-.07-2.09-.08-4.19-.05-6.28l.04-1.57Z"/>
        <path class="cls-2" d="M449,39.28c.61,1.66,1.41,3.25,2.39,4.72.97,1.48,2.09,2.85,3.33,4.11,1.25,1.25,2.61,2.38,4.05,3.4,2.88,2.04,6.11,3.57,9.45,4.63,1.65.54,3.3,1.07,4.77,1.9.73.41,1.4.91,1.97,1.5.29.29.54.61.75.96.24.33.4.71.58,1.08.62,1.52.68,3.24.42,4.9-.25,1.67-.8,3.31-1.39,4.93-.61,1.61-1.32,3.2-1.95,4.85-.63,1.64-1.2,3.3-1.68,4.99-.95,3.38-1.58,6.87-1.66,10.4-.09,3.53.41,7.09,1.59,10.43,1.16,3.34,3.04,6.47,5.61,8.93.63.63,1.34,1.16,2.03,1.72.73.51,1.45,1.02,2.21,1.46,1.51.91,3.09,1.7,4.68,2.42,3.17,1.47,6.42,2.73,9.39,4.48,2.96,1.72,5.64,4.04,7.2,7.08,1.55,3.03,2.03,6.58,1.55,9.96-.26,1.68-.78,3.33-1.54,4.86-1.47.84-3,1.64-4.54,2.4-4.13,2.02-8.46,3.75-12.83,5.48-4.38,1.72-8.81,3.43-13.18,5.39-2.19.97-4.35,2.04-6.47,3.2-2.12,1.16-4.2,2.42-6.18,3.84-1.98,1.41-3.88,2.96-5.62,4.68-1.74,1.72-3.33,3.6-4.7,5.62-1.38,2.01-2.52,4.12-3.65,6.19-1.12,2.08-2.23,4.14-3.44,6.13-1.22,1.98-2.57,3.88-4.25,5.46-.83.8-1.75,1.51-2.76,2.1-1.01.58-2.09,1.04-3.23,1.35,2.35-.32,4.59-1.39,6.49-2.87,1.9-1.49,3.49-3.34,4.92-5.26,2.86-3.84,5.09-8.07,7.94-11.64,2.8-3.6,6.32-6.56,10.18-9,3.86-2.44,8.05-4.39,12.36-6.13,2.15-.87,4.34-1.68,6.54-2.48l6.65-2.39c4.46-1.6,8.93-3.3,13.32-5.32,2.2-1.02,4.34-2.14,6.49-3.39,2.13-1.29,4.22-2.75,6.1-4.58,1.88-1.8,3.54-4.04,4.59-6.65l.35-1c.11-.34.19-.68.28-1.02.18-.69.28-1.39.36-2.06.15-1.36.14-2.66.09-3.89-.05-1.23-.13-2.39-.15-3.49-.04-1.11.03-2.1.17-3.12.29-2.03.95-4.03,1.91-5.88,1.9-3.72,5.09-6.79,8.83-8.54,1.85-.86,3.98-1.35,6.29-1.85,2.29-.5,4.78-1.04,7.23-2.17,2.44-1.16,4.66-2.87,6.27-4.97,1.64-2.08,2.85-4.39,3.69-6.78.85-2.38,1.38-4.83,1.69-7.28.07-.61.14-1.23.19-1.84.04-.61.09-1.23.11-1.83.06-1.21.06-2.41.06-3.61,0-2.39-.08-4.75-.1-7.08-.03-2.33.02-4.64.25-6.92.23-2.27.61-4.55,1.37-6.65.76-2.12,1.89-4.12,3.29-5.92.71-.89,1.49-1.73,2.36-2.48.87-.75,1.81-1.4,2.82-1.94,1.01-.54,2.1-.95,3.24-1.19,1.14-.23,2.32-.3,3.49-.18-1.15-.25-2.36-.32-3.55-.21-1.19.13-2.38.44-3.5.89-2.25.93-4.24,2.43-5.91,4.2-1.68,1.77-3.04,3.85-4.05,6.1-1.01,2.28-1.59,4.65-2.01,7.05-.82,4.8-.78,9.61-1.02,14.26-.06,1.16-.13,2.32-.24,3.46-.04.58-.12,1.13-.18,1.69-.07.56-.16,1.12-.25,1.67-.39,2.21-.98,4.37-1.78,6.41-.8,2.04-1.9,3.9-3.24,5.48-1.33,1.6-2.99,2.78-4.83,3.6-1.87.8-4.04,1.23-6.36,1.68-2.31.46-4.82.95-7.29,2.02-2.43,1.06-4.64,2.57-6.55,4.37-1.91,1.8-3.54,3.9-4.76,6.23-1.23,2.32-2.08,4.86-2.47,7.5-.06.33-.09.66-.12.99l-.08,1c-.04.66-.04,1.31-.03,1.94.02,1.26.1,2.45.13,3.58.04,1.13.05,2.19-.06,3.18-.05.49-.12.97-.24,1.42-.06.23-.11.46-.18.68l-.23.67c-.7,1.77-1.88,3.44-3.39,4.9-1.37,1.36-2.99,2.56-4.7,3.66.53-1.1.97-2.26,1.27-3.46.46-1.83.6-3.75.46-5.67-.14-1.92-.56-3.87-1.35-5.71-1.63-3.75-4.69-6.64-7.83-8.73-1.58-1.09-3.21-1.94-4.81-2.76-1.6-.82-3.16-1.57-4.65-2.35-1.5-.77-2.9-1.57-4.18-2.43-.65-.43-1.24-.87-1.83-1.31-.54-.48-1.11-.93-1.58-1.44-1.96-2.01-3.4-4.58-4.27-7.39-.43-1.41-.77-2.85-.97-4.33-.2-1.48-.27-2.96-.21-4.49.11-3.05.69-6.14,1.59-9.21.43-1.54.93-3.08,1.5-4.62.29-.78.58-1.51.9-2.32.33-.81.67-1.68,1-2.56.64-1.79,1.27-3.68,1.58-5.89.17-1.08.22-2.28.14-3.52-.08-1.24-.41-2.57-.94-3.82-.3-.62-.6-1.24-1-1.79-.37-.57-.81-1.1-1.29-1.58-.95-.96-2.01-1.68-3.03-2.24-2.06-1.1-3.97-1.6-5.61-2.1l-1.18-.36-1.1-.37c-.72-.27-1.45-.55-2.16-.86-1.43-.61-2.82-1.31-4.13-2.14-1.31-.83-2.56-1.76-3.71-2.79-1.14-1.04-2.16-2.19-3.12-3.4-.95-1.21-1.75-2.54-2.38-3.94-.63-1.39-1.1-2.84-1.36-4.39-.28-1.53-.37-3.12-.28-4.72.09-1.6.44-3.18.91-4.73.23-.79.56-1.53.89-2.28l.58-1.09c.19-.37.45-.69.66-1.05.91-1.39,2.08-2.63,3.42-3.72l-.24-.41c-3.03,1.82-5.45,4.64-6.83,7.89-.71,1.62-1.23,3.32-1.5,5.07-.27,1.75-.33,3.53-.19,5.29.14,1.77.58,3.51,1.18,5.17Z"/>
      </g>
      <path class="cls-1" d="M329.89,94.55c3.89-.47,7.73-1.52,11.32-3.08,3.61-1.54,7.02-3.44,10.41-5.34l10.18-5.7,2.54-1.42c.86-.46,1.68-1.01,2.51-1.23.41-.11.81-.11,1.19.01.38.12.74.36,1.09.65.34.29.66.64,1,.99l1.05,1.04c2.8,2.76,6.02,5.09,9.49,6.93,6.95,3.67,14.86,5.45,22.7,5.23l1.47-.05,1.47-.14c.49-.05.98-.09,1.47-.14l1.45-.23c.48-.08.97-.15,1.45-.24l1.44-.33,1.43-.33c.46-.09.91-.23,1.38-.27,3.72-.56,7.68.77,10.29,3.48.64.68,1.24,1.42,1.7,2.24.11.21.24.4.35.61l.29.64c.2.42.36.89.55,1.34.72,1.8,1.41,3.62,2.09,5.44,1.36,3.64,2.64,7.3,3.84,10.99,2.43,7.38,4.57,14.85,6.4,22.4l.47-.11c-.92-7.78-2.52-15.46-4.41-23.09-.98-3.8-2.08-7.57-3.23-11.33-.57-1.88-1.2-3.75-1.85-5.6l-.24-.7-.12-.35-.17-.42-.36-.85c-.13-.28-.28-.55-.42-.82-.57-1.1-1.32-2.11-2.14-3.04-1.69-1.83-3.8-3.3-6.17-4.16-2.35-.89-4.93-1.15-7.44-.85-.63.05-1.24.21-1.86.32l-1.34.27-1.3.26c-.44.07-.88.12-1.32.17l-1.31.17-1.32.09-1.32.09h-1.33s-1.33,0-1.33,0l-1.32-.07-1.32-.06-1.32-.14-1.32-.15-1.31-.23-1.31-.23c-.43-.09-.86-.21-1.29-.31-3.43-.82-6.75-2.08-9.82-3.75-1.79-.93-3.5-2.01-5.1-3.21.45-.06.91-.11,1.36-.23,1.14-.31,2.28-.76,3.32-1.36,2.11-1.18,3.87-2.84,5.48-4.52,1.57-1.72,2.96-3.53,4.32-5.26.69-.86,1.33-1.74,1.98-2.58.65-.84,1.3-1.64,1.96-2.38.68-.74,1.36-1.46,2.1-2.14.72-.69,1.46-1.35,2.21-1.99,1.54-1.24,3.14-2.4,4.83-3.4,1.7-.99,3.43-1.88,5.26-2.59.98-.39,2.17-.86,3.49-1.61.66-.38,1.36-.84,2.06-1.46.7-.62,1.4-1.43,1.93-2.39.53-.97.87-2.04,1-3.12.12-1.07.04-2.08-.13-2.96-.36-1.74-.96-3-1.45-4.06l-.69-1.42c-.19-.42-.36-.78-.45-1.11l-.18-.51c-.05-.17-.07-.35-.11-.53-.1-.35-.12-.72-.17-1.09-.17-1.49.13-3.17.66-4.92l.21-.66.25-.66c.16-.44.36-.89.55-1.33.38-.9.84-1.8,1.32-2.69.49-.89,1-1.8,1.54-2.7l1.69-2.73,3.5-5.62c2.24-3.82,4.51-7.62,6.48-11.65l-.38-.29-8.15,10.36-4.05,5.2c-1.35,1.74-2.67,3.51-3.87,5.38-1.19,1.87-2.27,3.82-3.07,5.91-.79,2.08-1.32,4.32-1.22,6.6.03.57.05,1.14.18,1.69.05.28.09.56.15.84l.24.82c.31,1.1.82,2.1,1.27,3.1.45.99.87,1.98,1.07,2.99.09.5.12,1.01.06,1.49-.06.49-.22.96-.45,1.38-.47.86-1.28,1.53-2.19,2.05-.91.53-1.91.94-2.93,1.37-2.05.87-4.01,1.92-5.88,3.12-1.86,1.21-3.62,2.59-5.25,4.09-1.62,1.52-3.12,3.17-4.46,4.93-2.66,3.56-4.71,7.47-7.3,10.98-1.28,1.75-2.71,3.42-4.41,4.74-1.34,1.05-2.89,1.84-4.53,2.26-.87-.69-1.7-1.41-2.5-2.18l-.94-.9c-.33-.33-.74-.79-1.36-1.32-.62-.52-1.47-1.15-2.71-1.54-.61-.19-1.31-.3-1.96-.3-.65,0-1.25.1-1.76.23-1.03.27-1.74.65-2.29.94l-1.34.76c-.85.48-1.68.97-2.52,1.47l-10.03,5.97c-1.67,1-3.32,1.96-4.95,2.9-1.62.94-3.25,1.83-4.89,2.62-12.82,6.38-29.47,4.94-42.09-4.15l-.32.35c5.77,5.3,13.15,8.76,20.87,10.08,3.86.66,7.83.78,11.72.3Z"/>
    </g>
    <g>
      <path class="cls-4" d="M413.09,604.84c.16,2.33,1.68,4.43,3.66,5.68s4.35,1.74,6.68,1.84c1.27.06,2.57,0,3.77-.42,1.83-.64,3.33-2.17,3.95-4.01.61-1.84.33-3.96-.75-5.58-1.3-1.95-3.61-3.06-5.94-3.37-4.33-.59-11.78-.3-11.37,5.86Z"/>
      <path class="cls-4" d="M356.15,581.09c0,.93.45,1.81,1.07,2.5,1.21,1.34,3.04,2.01,4.84,2.1s3.59-.34,5.31-.9c.83-.28,1.67-.59,2.35-1.15.84-.69,1.36-1.69,1.83-2.68.57-1.19,1.1-2.6.53-3.8-.31-.65-.9-1.11-1.54-1.45-1.61-.85-3.53-.97-5.32-.67-3.45.57-9.07,1.42-9.08,6.05Z"/>
    </g>
  </g>
</svg>